A swirl of pop-art color, madcap magic, and the bittersweet call of life and love suddenly take the mature, ravishing, self-reliant Agata by storm. When Agata, the popular bookshop proprietor and dispenser of sunny wisdom in the form of books, is suddenly wooed by a man almost half her age, her electricity hits high-voltage. It even sends light bulbs bursting in her wake. Yet it is Agata's joy and 'explosive' magnetism in the face of life in all its irony that eventually offers the eye of the cyclone. There, all is supremely quiet and still, as Agata creates a haven of love and freedom to quell the storms of life's unfulfilled desires.

   General
      Complete name : Agata e la tempesta.avi
      Format : AVI
      Format/Info : Audio Video Interleave
      File size : 1.45 GiB
      Duration : 2h 0mn
      Overall bit rate : 1 733 Kbps
      Writing application : FairUse Wizard - http://fairusewizard.com
      Writing library : The best and REALLY easy backup tool
   Video #0
      ID : 0
      Format : MPEG-4 Visual
      Format profile : AdvancedSimple@L5
      Format settings, BVOP : Yes
      Format settings, QPel : No
      Format settings, GMC : No warppoints
      Format settings, Matrix : Default (MPEG)
      Muxing mode : Packed bitstream
      Codec ID : XVID
      Codec ID/Hint : XviD
      Duration : 2h 0mn
      Bit rate : 1 529 Kbps
      Width : 688 pixels
      Height : 368 pixels
      Display aspect ratio : 1.870
      Frame rate : 29.970 fps
      Resolution : 24 bits
      Colorimetry : 4:2:0
      Scan type : Progressive
      Bits/(Pixel*Frame) : 0.201
      Stream size : 1.28 GiB (88%)
      Writing library : XviD 1.2.0.dev47 (UTC 2006-11-01)
   Audio #1
      ID : 1
      Format : MPEG Audio
      Format version : Version 1
      Format profile : Layer 3
      Codec ID : 55
      Codec ID/Hint : MP3
      Duration : 2h 0mn
      Bit rate mode : Constant
      Bit rate : 192 Kbps
      Channel(s) : 2 channels
      Sampling rate : 48.0 KHz
      Resolution : 16 bits
      Stream size : 165 MiB (11%)
      Alignment : Aligned on interleaves
      Interleave, duration : 33 ms (1.00 video frame)
      Interleave, preload duration : 504 ms
      Writing library : LAME3.97 
      Encoding settings : -m j -V 4 -q 2 -lowpass 18.6 -b 192
 
http://www.imdb.com/title/tt0402755

Italian audio; English and Portuguese subtitles

Silvio Soldini - Agata e la tempesta (2004)